<?xml version="1.0" standalone="no"?>
<!DOCTYPE svg PUBLIC "-//W3C//DTD SVG 1.1//EN"
"http://www.w3.org/Graphics/SVG/1.1/DTD/svg11.dtd">

<svg width="394" height="382" view_box="0 0 394 382"
xmlns="http://www.w3.org/2000/svg"
xmlns:link="http://www.w3.org/1999/xlink">\n\n<desc>Généré par Mocodo 2.3.7 le Tue, 25 Sep 2018 11:25:00</desc>

<rect id="frame" x="0" y="0" width="394" height="382" fill="#f7f7f7" stroke="none" stroke-width="0"/>

<!-- Association ATTRIBUER -->
<line x1="54" y1="204" x2="173" y2="204" stroke="#9970ab" stroke-width="2"/>
<text x="104" y="221.0" fill="#1b7837" font-family="Verdana" font-size="12">0,1</text>
<line x1="321" y1="77" x2="173" y2="204" stroke="#9970ab" stroke-width="2"/>
<text x="256" y="108.775804" fill="#1b7837" font-family="Verdana" font-size="12">0,1</text>
<g id="association-ATTRIBUER">
	<path d="M 201 179 a 14 14 90 0 1 14 14 V 204 h -84 V 193 a 14 14 90 0 1 14 -14" fill="#c2a5cf" stroke="#c2a5cf" stroke-width="0"/>
	<path d="M 215 204.0 v 11 a 14 14 90 0 1 -14 14 H 145 a 14 14 90 0 1 -14 -14 V 204.0 H 84" fill="#e7d4e8" stroke="#e7d4e8" stroke-width="0"/>
	<rect x="131" y="179" width="84" height="50" fill="none" rx="14" stroke="#9970ab" stroke-width="2"/>
	<line x1="131" y1="204" x2="215" y2="204" stroke="#9970ab" stroke-width="1"/>
	<text x="138" y="196.7" fill="#000000" font-family="Verdana" font-size="12">ATTRIBUER</text>
</g>

<!-- Association RESERVER -->
<line x1="54" y1="204" x2="173" y2="77" stroke="#9970ab" stroke-width="2"/>
<text x="66.6042394081" y="162" fill="#1b7837" font-family="Verdana" font-size="12">0,1</text>
<line x1="54" y1="77" x2="173" y2="77" stroke="#9970ab" stroke-width="2"/>
<text x="93" y="94.0" fill="#1b7837" font-family="Verdana" font-size="12">0,1</text>
<g id="association-RESERVER">
	<path d="M 199 52 a 14 14 90 0 1 14 14 V 77 h -80 V 66 a 14 14 90 0 1 14 -14" fill="#c2a5cf" stroke="#c2a5cf" stroke-width="0"/>
	<path d="M 213 77.0 v 11 a 14 14 90 0 1 -14 14 H 147 a 14 14 90 0 1 -14 -14 V 77.0 H 80" fill="#e7d4e8" stroke="#e7d4e8" stroke-width="0"/>
	<rect x="133" y="52" width="80" height="50" fill="none" rx="14" stroke="#9970ab" stroke-width="2"/>
	<line x1="133" y1="77" x2="213" y2="77" stroke="#9970ab" stroke-width="1"/>
	<text x="140" y="69.7" fill="#000000" font-family="Verdana" font-size="12">RESERVER</text>
</g>

<!-- Association STOCKER -->
<line x1="321" y1="77" x2="321" y2="204" stroke="#9970ab" stroke-width="2"/>
<text x="326.0" y="145" fill="#1b7837" font-family="Verdana" font-size="12">0,1</text>
<line x1="321" y1="314" x2="321" y2="204" stroke="#9970ab" stroke-width="2"/>
<text x="326.0" y="247" fill="#1b7837" font-family="Verdana" font-size="12">0,1</text>
<g id="association-STOCKER">
	<path d="M 344 179 a 14 14 90 0 1 14 14 V 204 h -74 V 193 a 14 14 90 0 1 14 -14" fill="#c2a5cf" stroke="#c2a5cf" stroke-width="0"/>
	<path d="M 358 204.0 v 11 a 14 14 90 0 1 -14 14 H 298 a 14 14 90 0 1 -14 -14 V 204.0 H 74" fill="#e7d4e8" stroke="#e7d4e8" stroke-width="0"/>
	<rect x="284" y="179" width="74" height="50" fill="none" rx="14" stroke="#9970ab" stroke-width="2"/>
	<line x1="284" y1="204" x2="358" y2="204" stroke="#9970ab" stroke-width="1"/>
	<text x="291" y="196.7" fill="#000000" font-family="Verdana" font-size="12">STOCKER</text>
</g>

<!-- Association INSERER -->
<line x1="54" y1="204" x2="54" y2="314" stroke="#9970ab" stroke-width="2"/>
<text x="59.0" y="255" fill="#1b7837" font-family="Verdana" font-size="12">0,1</text>
<line x1="173" y1="314" x2="54" y2="314" stroke="#9970ab" stroke-width="2"/>
<text x="95" y="331.0" fill="#1b7837" font-family="Verdana" font-size="12">0,1</text>
<g id="association-INSERER">
	<path d="M 75 289 a 14 14 90 0 1 14 14 V 314 h -70 V 303 a 14 14 90 0 1 14 -14" fill="#c2a5cf" stroke="#c2a5cf" stroke-width="0"/>
	<path d="M 89 314.0 v 11 a 14 14 90 0 1 -14 14 H 33 a 14 14 90 0 1 -14 -14 V 314.0 H 70" fill="#e7d4e8" stroke="#e7d4e8" stroke-width="0"/>
	<rect x="19" y="289" width="70" height="50" fill="none" rx="14" stroke="#9970ab" stroke-width="2"/>
	<line x1="19" y1="314" x2="89" y2="314" stroke="#9970ab" stroke-width="1"/>
	<text x="26" y="306.7" fill="#000000" font-family="Verdana" font-size="12">INSERER</text>
</g>

<!-- Entity LINKPLACE -->
<g id="entity-LINKPLACE">
	<g id="frame-LINKPLACE">
		<rect x="282" y="26" width="78" height="25" fill="#a6dba0" stroke="#a6dba0" stroke-width="0"/>
		<rect x="282" y="51.0" width="78" height="77" fill="#d9f0d3" stroke="#d9f0d3" stroke-width="0"/>
		<rect x="282" y="26" width="78" height="102" fill="none" stroke="#5aae61" stroke-width="2"/>
		<line x1="282" y1="51" x2="360" y2="51" stroke="#5aae61" stroke-width="1"/>
	</g>
	<text x="287" y="43.7" fill="#000000" font-family="Verdana" font-size="12">LINKPLACE</text>
	<text x="287" y="68.7" fill="#000000" font-family="Verdana" font-size="12">id_lp</text>
	<line x1="287" y1="71" x2="317" y2="71" stroke="#000000" stroke-width="1"/>
	<text x="287" y="85.8" fill="#000000" font-family="Verdana" font-size="12">id_p</text>
	<text x="287" y="102.8" fill="#000000" font-family="Verdana" font-size="12">id_u</text>
	<text x="287" y="119.8" fill="#000000" font-family="Verdana" font-size="12">datefin</text>
</g>

<!-- Entity HISTORIQUEPLACE -->
<g id="entity-HISTORIQUEPLACE">
	<g id="frame-HISTORIQUEPLACE">
		<rect x="257" y="255" width="128" height="25" fill="#a6dba0" stroke="#a6dba0" stroke-width="0"/>
		<rect x="257" y="280.0" width="128" height="93" fill="#d9f0d3" stroke="#d9f0d3" stroke-width="0"/>
		<rect x="257" y="255" width="128" height="118" fill="none" stroke="#5aae61" stroke-width="2"/>
		<line x1="257" y1="280" x2="385" y2="280" stroke="#5aae61" stroke-width="1"/>
	</g>
	<text x="262" y="272.7" fill="#000000" font-family="Verdana" font-size="12">HISTORIQUEPLACE</text>
	<text x="262" y="297.7" fill="#000000" font-family="Verdana" font-size="12">id_h</text>
	<line x1="262" y1="300" x2="289" y2="300" stroke="#000000" stroke-width="1"/>
	<text x="262" y="314.8" fill="#000000" font-family="Verdana" font-size="12">id_p</text>
	<text x="262" y="331.8" fill="#000000" font-family="Verdana" font-size="12">id_u</text>
	<text x="262" y="348.8" fill="#000000" font-family="Verdana" font-size="12">datedebut</text>
	<text x="262" y="365.8" fill="#000000" font-family="Verdana" font-size="12">datefin</text>
</g>

<!-- Entity PLACE -->
<g id="entity-PLACE">
	<g id="frame-PLACE">
		<rect x="9" y="170" width="90" height="25" fill="#a6dba0" stroke="#a6dba0" stroke-width="0"/>
		<rect x="9" y="195.0" width="90" height="43" fill="#d9f0d3" stroke="#d9f0d3" stroke-width="0"/>
		<rect x="9" y="170" width="90" height="68" fill="none" stroke="#5aae61" stroke-width="2"/>
		<line x1="9" y1="195" x2="99" y2="195" stroke="#5aae61" stroke-width="1"/>
	</g>
	<text x="34" y="187.7" fill="#000000" font-family="Verdana" font-size="12">PLACE</text>
	<text x="14" y="212.8" fill="#000000" font-family="Verdana" font-size="12">id_p</text>
	<line x1="14" y1="215" x2="41" y2="215" stroke="#000000" stroke-width="1"/>
	<text x="14" y="229.8" fill="#000000" font-family="Verdana" font-size="12">numeroplace</text>
</g>

<!-- Entity USER -->
<g id="entity-USER">
	<g id="frame-USER">
		<rect x="20" y="9" width="68" height="25" fill="#a6dba0" stroke="#a6dba0" stroke-width="0"/>
		<rect x="20" y="34.0" width="68" height="111" fill="#d9f0d3" stroke="#d9f0d3" stroke-width="0"/>
		<rect x="20" y="9" width="68" height="136" fill="none" stroke="#5aae61" stroke-width="2"/>
		<line x1="20" y1="34" x2="88" y2="34" stroke="#5aae61" stroke-width="1"/>
	</g>
	<text x="37" y="26.7" fill="#000000" font-family="Verdana" font-size="12">USER</text>
	<text x="25" y="51.7" fill="#000000" font-family="Verdana" font-size="12">id_u</text>
	<line x1="25" y1="54" x2="52" y2="54" stroke="#000000" stroke-width="1"/>
	<text x="25" y="68.7" fill="#000000" font-family="Verdana" font-size="12">nom</text>
	<text x="25" y="85.8" fill="#000000" font-family="Verdana" font-size="12">prenom</text>
	<text x="25" y="102.8" fill="#000000" font-family="Verdana" font-size="12">email</text>
	<text x="25" y="119.8" fill="#000000" font-family="Verdana" font-size="12">password</text>
	<text x="25" y="136.8" fill="#000000" font-family="Verdana" font-size="12">Admin</text>
</g>

<!-- Entity LISTEATTENTE -->
<g id="entity-LISTEATTENTE">
	<g id="frame-LISTEATTENTE">
		<rect x="121" y="263" width="104" height="25" fill="#a6dba0" stroke="#a6dba0" stroke-width="0"/>
		<rect x="121" y="288.0" width="104" height="77" fill="#d9f0d3" stroke="#d9f0d3" stroke-width="0"/>
		<rect x="121" y="263" width="104" height="102" fill="none" stroke="#5aae61" stroke-width="2"/>
		<line x1="121" y1="288" x2="225" y2="288" stroke="#5aae61" stroke-width="1"/>
	</g>
	<text x="127" y="280.7" fill="#000000" font-family="Verdana" font-size="12">LISTEATTENTE</text>
	<text x="126" y="305.7" fill="#000000" font-family="Verdana" font-size="12">id_la</text>
	<line x1="126" y1="308" x2="156" y2="308" stroke="#000000" stroke-width="1"/>
	<text x="126" y="322.8" fill="#000000" font-family="Verdana" font-size="12">id_u</text>
	<text x="126" y="339.8" fill="#000000" font-family="Verdana" font-size="12">placefileattente</text>
	<text x="126" y="356.8" fill="#000000" font-family="Verdana" font-size="12">datedemande</text>
</g>
</svg>